<?xml version="1.0" encoding="UTF-8"?>
<svg id="Capa_2" data-name="Capa 2" xmlns="http://www.w3.org/2000/svg" viewBox="0 0 176.43 73.68">
  <defs>
    <style>
      .cls-1 {
        fill: #fff;
      }
    </style>
  </defs>
  <g id="Capa_1-2" data-name="Capa 1">
    <g>
      <g>
        <rect class="cls-1" width=".86" height="73.68"/>
        <rect class="cls-1" x="5.17" width="1.04" height="73.68"/>
        <rect class="cls-1" x="10.34" width="1.22" height="73.68"/>
        <rect class="cls-1" x="62.05" width="3.06" height="73.68"/>
        <rect class="cls-1" x="67.22" width="3.24" height="73.68"/>
        <rect class="cls-1" x="72.39" width="3.42" height="73.68"/>
        <g>
          <rect class="cls-1" x="15.51" width="1.41" height="12.13"/>
          <rect class="cls-1" x="15.51" y="61.55" width="1.41" height="12.13"/>
        </g>
        <g>
          <rect class="cls-1" x="20.68" width="1.59" height="12.13"/>
          <rect class="cls-1" x="20.68" y="61.55" width="1.59" height="12.13"/>
        </g>
        <g>
          <rect class="cls-1" x="25.85" width="1.77" height="12.13"/>
          <rect class="cls-1" x="25.85" y="61.55" width="1.77" height="12.13"/>
        </g>
        <g>
          <rect class="cls-1" x="31.03" width="1.96" height="12.13"/>
          <rect class="cls-1" x="31.03" y="61.55" width="1.96" height="12.13"/>
        </g>
        <g>
          <rect class="cls-1" x="36.2" y="61.55" width="2.14" height="12.13"/>
          <rect class="cls-1" x="36.2" width="2.14" height="12.13"/>
        </g>
        <g>
          <rect class="cls-1" x="41.37" width="2.32" height="12.13"/>
          <rect class="cls-1" x="41.37" y="61.55" width="2.32" height="12.13"/>
        </g>
        <g>
          <rect class="cls-1" x="46.54" width="2.5" height="12.13"/>
          <rect class="cls-1" x="46.54" y="61.55" width="2.5" height="12.13"/>
        </g>
        <g>
          <rect class="cls-1" x="51.71" width="2.69" height="12.13"/>
          <rect class="cls-1" x="51.71" y="61.55" width="2.69" height="12.13"/>
        </g>
        <g>
          <rect class="cls-1" x="56.88" width="2.87" height="12.13"/>
          <rect class="cls-1" x="56.88" y="61.55" width="2.87" height="12.13"/>
        </g>
      </g>
      <g>
        <path class="cls-1" d="M90.01,24.47v-.13h2.09v.1c0,.89.34,1.59,1.03,2.11.69.52,1.61.78,2.77.78s2.15-.24,2.84-.73c.69-.49,1.03-1.18,1.03-2.09,0-.8-.24-1.4-.71-1.78-.48-.38-1.24-.67-2.3-.86l-2-.35c-1.56-.27-2.71-.74-3.42-1.4-.72-.66-1.08-1.61-1.08-2.85,0-1.4.52-2.51,1.55-3.35,1.04-.83,2.38-1.25,4.03-1.25,1.78,0,3.19.41,4.25,1.22,1.06.81,1.59,1.88,1.59,3.19v.19h-2.09v-.1c0-.85-.33-1.51-.98-2-.65-.49-1.55-.73-2.7-.73s-1.99.24-2.62.73-.94,1.15-.94,2c0,.7.22,1.24.67,1.63.44.39,1.15.67,2.12.84l2.09.38c1.59.3,2.75.78,3.5,1.44.75.67,1.12,1.63,1.12,2.9,0,1.52-.55,2.7-1.65,3.54s-2.57,1.25-4.41,1.25-3.16-.42-4.22-1.27-1.58-1.99-1.58-3.42Z"/>
        <path class="cls-1" d="M110.46,29.17c-1.59,0-2.88-.53-3.9-1.59-1.01-1.06-1.52-2.73-1.52-5.01v-3.3c0-2.26.52-3.92,1.55-4.98,1.04-1.06,2.38-1.59,4.03-1.59.93,0,1.76.21,2.47.62.72.41,1.29,1.02,1.71,1.82v-2.25h2.19v20.9h-2.19v-6.94c-.89,1.54-2.34,2.31-4.34,2.31ZM114.8,22.41v-2.82c0-1.5-.33-2.7-.98-3.6s-1.63-1.35-2.92-1.35c-2.45,0-3.68,1.6-3.68,4.79v3.01c0,3.19,1.18,4.79,3.55,4.79,1.33,0,2.33-.44,3.01-1.33.68-.89,1.01-2.05,1.01-3.49Z"/>
        <path class="cls-1" d="M121.74,23.08v-10.18h2.16v9.89c0,1.48.29,2.59.86,3.33.57.74,1.53,1.11,2.88,1.11s2.31-.36,2.88-1.08c.57-.72.86-1.84.86-3.36v-9.89h2.16v10.18c0,1.97-.49,3.47-1.47,4.52-.98,1.05-2.47,1.57-4.46,1.57s-3.41-.52-4.39-1.57-1.47-2.55-1.47-4.52Z"/>
        <path class="cls-1" d="M149.3,18.04v10.94h-2.12v-1.71c-.48.66-1.09,1.14-1.81,1.44s-1.6.46-2.63.46c-1.69,0-3-.4-3.93-1.21-.93-.8-1.4-1.98-1.4-3.52,0-1.44.47-2.56,1.41-3.38.94-.81,2.27-1.22,3.98-1.22h4.34v-1.84c0-1.16-.32-2.04-.95-2.63-.63-.59-1.53-.89-2.7-.89-1.1,0-1.96.25-2.58.75-.62.5-.94,1.18-.94,2.04v.1h-2.09v-.16c0-1.37.5-2.47,1.49-3.3.99-.82,2.36-1.24,4.09-1.24,1.88,0,3.32.45,4.33,1.36,1,.91,1.51,2.24,1.51,4ZM147.14,23.52v-2.09h-4.03c-2.37,0-3.55.99-3.55,2.98s1.17,3.01,3.52,3.01c1.42,0,2.45-.32,3.09-.97.64-.64.97-1.62.97-2.93Z"/>
        <path class="cls-1" d="M156.17,12.9v2.16c.44-.8,1.03-1.4,1.76-1.79.73-.39,1.55-.59,2.46-.59.4,0,.79.03,1.17.1v2.16c-.51-.17-1.06-.25-1.65-.25-1.1,0-1.99.38-2.68,1.14-.69.76-1.03,1.75-1.03,2.98v10.18h-2.16V12.9h2.12Z"/>
        <path class="cls-1" d="M166.38,22.32c0,1.82.37,3.09,1.11,3.82.74.73,1.77,1.09,3.08,1.09,1.14,0,2.04-.27,2.68-.82s.97-1.31.97-2.28v-.1h2.09v.16c0,1.5-.52,2.71-1.57,3.61-1.05.91-2.49,1.36-4.33,1.36s-3.38-.56-4.5-1.68c-1.12-1.12-1.68-2.86-1.68-5.23v-2.79c0-2.3.56-4.01,1.68-5.12,1.12-1.11,2.6-1.66,4.44-1.66s3.31.56,4.42,1.66c1.11,1.11,1.66,2.82,1.66,5.12v1.9h-10.05v.95ZM166.38,19.4v.35h7.89v-.57c0-1.67-.35-2.84-1.04-3.52-.7-.68-1.66-1.01-2.89-1.01s-2.17.35-2.88,1.06c-.72.71-1.08,1.94-1.08,3.69Z"/>
      </g>
      <g>
        <path class="cls-1" d="M90.67,57.4h2.16c.11.7.47,1.26,1.09,1.7.62.43,1.44.65,2.46.65,2.52,0,3.77-1.41,3.77-4.22v-2.25c-.42.76-1,1.34-1.73,1.74-.73.4-1.6.6-2.62.6-1.59,0-2.89-.53-3.9-1.6-1.02-1.07-1.52-2.74-1.52-5.03v-2.22c0-2.26.51-3.92,1.52-4.98,1.01-1.06,2.32-1.59,3.93-1.59,1.97,0,3.4.81,4.31,2.44v-2.25h2.19v14.93c0,1.94-.52,3.48-1.57,4.6-1.04,1.12-2.51,1.68-4.39,1.68-1.69,0-3.04-.38-4.04-1.14-1-.76-1.56-1.79-1.66-3.08ZM100.15,48.84v-1.74c0-1.5-.33-2.7-.98-3.6-.66-.9-1.63-1.35-2.92-1.35-2.45,0-3.68,1.6-3.68,4.79v1.93c0,3.19,1.18,4.79,3.55,4.79,1.33,0,2.34-.44,3.01-1.33.68-.89,1.02-2.05,1.02-3.49Z"/>
        <path class="cls-1" d="M108.75,49.95c0,1.82.37,3.09,1.11,3.82.74.73,1.76,1.09,3.07,1.09,1.14,0,2.04-.27,2.68-.82s.97-1.31.97-2.28v-.1h2.09v.16c0,1.5-.52,2.71-1.57,3.61-1.04.91-2.49,1.36-4.33,1.36s-3.38-.56-4.5-1.68c-1.12-1.12-1.68-2.86-1.68-5.23v-2.79c0-2.3.56-4.01,1.68-5.12,1.12-1.11,2.6-1.66,4.44-1.66s3.31.56,4.42,1.66c1.11,1.11,1.66,2.82,1.66,5.12v1.9h-10.05v.95ZM108.75,47.03v.35h7.89v-.57c0-1.67-.35-2.84-1.05-3.52-.7-.68-1.66-1.01-2.88-1.01s-2.17.35-2.89,1.06c-.72.71-1.08,1.94-1.08,3.69Z"/>
        <path class="cls-1" d="M125.17,40.53v1.97c.46-.72,1.07-1.26,1.82-1.62.75-.36,1.59-.54,2.52-.54,1.71,0,3.03.5,3.95,1.51.92,1,1.38,2.4,1.38,4.2v10.56h-2.16v-10.24c0-1.33-.33-2.35-.98-3.04-.65-.7-1.56-1.05-2.73-1.05s-2.05.35-2.74,1.06c-.69.71-1.03,1.72-1.03,3.03v10.24h-2.16v-16.08h2.12Z"/>
      </g>
    </g>
  </g>
</svg>